<svg xmlns="http://www.w3.org/2000/svg" viewBox="0 0 96 96" width="18" height="18"><defs><linearGradient id="a" x1="58.97" y1="12.28" x2="30.63" y2="84.88" gradientUnits="userSpaceOnUse"><stop offset="0" stop-color="#114a8b"/><stop offset="1" stop-color="#0669bc"/></linearGradient><linearGradient id="b" x1="60.23" y1="49.86" x2="54.87" y2="52.04" gradientUnits="userSpaceOnUse"><stop offset="0" stop-opacity=".3"/><stop offset=".07" stop-opacity=".2"/><stop offset=".32" stop-opacity=".1"/><stop offset=".62" stop-opacity=".05"/><stop offset="1" stop-opacity="0"/></linearGradient><linearGradient id="c" x1="46.1" y1="14.93" x2="72.96" y2="84.15" gradientUnits="userSpaceOnUse"><stop offset="0" stop-color="#3ccbf4"/><stop offset="1" stop-color="#2892df"/></linearGradient></defs><path d="M33.34 8.3h21.67L32.63 86.2a4.44 4.44 0 0 1-4.2 3.05H11.26a4.45 4.45 0 0 1-4.2-5.86L28.7 14.72l.49-1.37A4.44 4.44 0 0 1 33.34 8.3Z" fill="url(#a)"/><path d="M68.99 56.53H34.06a2.05 2.05 0 0 0-1.4 3.55L57.7 82.84a4.47 4.47 0 0 0 3.02 1.17h19.72Z" fill="url(#b)"/><path d="M33.34 8.3a4.39 4.39 0 0 0-4.2 3.15L7.16 80.09a4.43 4.43 0 0 0 4.15 5.96h17.5a4.57 4.57 0 0 0 3.79-2.78l4.05-11.07 14.6 13.43a4.52 4.52 0 0 0 2.82 1.12h19.56l-8.57-24.22H37.59l19.46-52.23Z" fill="url(#c)"/></svg>
